# xmcd CD database file
# Generated: Sat Sep 22 02:24:55 2001 by KSCD
# 
# Track frame offsets:
#       151
#       18552
#       31427
#       41927
#       53715
#       65052
#       76215
#       87302
#       98240
#       108177
#       119952
#       132727
#       145977
#       157702
#       168952
#       180102
#       191115
#       202452
#       216015
#       230265
#
# Disc length: 3203 seconds
#
# Revision: 1
# Processed by: cddbd v1.4PL0 Copyright (c) Steve Scherf et al.
# Submitted via: Kscd 1.3.2
#
DISCID=230c8114
DTITLE=Brook Benton - Brook Benton
DYEAR=1900
DGENRE=
TTITLE0=Rainy Night In Georgia
TTITLE1=Think Twice
TTITLE2=The Same One
TTITLE3=Hotel Happiness
TTITLE4=So Many Ways
TTITLE5=Endlessly
TTITLE6=Revenge
TTITLE7=Thank You Pretty Baby
TTITLE8=Lie To Me
TTITLE9=Kiddio
TTITLE10=The Boll Weevil Song
TTITLE11=Baby (You've Got What It Takes)
TTITLE12=My True Confession
TTITLE13=It's Just A Matter Of Time
TTITLE14=A Rockin' Good Way
TTITLE15=Frankie And Johnny
TTITLE16=It's Just A House Without You
TTITLE17=I Got What I Wanted
TTITLE18=For My Baby
TTITLE19=So Close
EXTD=
EXTT0=
EXTT1=
EXTT2=
EXTT3=
EXTT4=
EXTT5=
EXTT6=
EXTT7=
EXTT8=
EXTT9=
EXTT10=
EXTT11=
EXTT12=
EXTT13=
EXTT14=
EXTT15=
EXTT16=
EXTT17=
EXTT18=
EXTT19=
PLAYORDER=
